rotated_Sprint_08550001_forces_filt10Hz.mot
version=1
nRows=33
nColumns=19
inDegrees=yes
endheader
time	R_ground_force_vx	R_ground_force_vy	R_ground_force_vz	R_ground_force_px	R_ground_force_py	R_ground_force_pz	R_ground_torque_x	R_ground_torque_y	R_ground_torque_z	L_ground_force_vx	L_ground_force_vy	L_ground_force_vz	L_ground_force_px	L_ground_force_py	L_ground_force_pz	L_ground_torque_x	L_ground_torque_y	L_ground_torque_z	
0.000000	  0.000000	  0.000000	  0.000000	  0.213845	  0.000000	 -0.321833	  0.000000	  0.000000	  0.000000	  0.000000	  0.000000	  0.000000	  0.913066	  0.000000	 -0.260189	  0.000000	  0.000000	  0.000000
0.000500	  0.000000	  0.000000	  0.000000	  0.213176	 -0.000000	 -0.323611	  0.000000	  0.000000	  0.000000	  0.000000	  0.000000	  0.000000	  0.915952	 -0.000000	 -0.258435	  0.000000	  0.000000	  0.000000
0.001000	  0.000000	  0.000000	  0.000000	  0.212507	 -0.000000	 -0.325389	  0.000000	  0.000000	  0.000000	  0.000000	  0.000000	  0.000000	  0.918838	 -0.000000	 -0.256682	  0.000000	  0.000000	  0.000000
0.001500	  0.000000	  0.000000	  0.000000	  0.211838	 -0.000000	 -0.327168	  0.000000	  0.000000	  0.000000	  0.000000	  0.000000	  0.000000	  0.921725	 -0.000000	 -0.254928	  0.000000	  0.000000	  0.000000
0.002000	  0.000000	  0.000000	  0.000000	  0.211169	 -0.000000	 -0.328946	  0.000000	  0.000000	  0.000000	  0.000000	  0.000000	  0.000000	  0.924611	 -0.000000	 -0.253174	  0.000000	  0.000000	  0.000000
0.002500	  0.000000	  0.000000	  0.000000	  0.210500	  0.000000	 -0.330724	  0.000000	  0.000000	  0.000000	  0.000000	  0.000000	  0.000000	  0.927497	  0.000000	 -0.251420	  0.000000	  0.000000	  0.000000
0.003000	  0.000000	  0.000000	  0.000000	  0.209831	  0.000000	 -0.332502	  0.000000	  0.000000	  0.000000	  0.000000	  0.000000	  0.000000	  0.930383	  0.000000	 -0.249667	  0.000000	  0.000000	  0.000000
0.003500	  0.000000	  0.000000	  0.000000	  0.209162	  0.000000	 -0.334280	  0.000000	  0.000000	  0.000000	  0.000000	  0.000000	  0.000000	  0.933269	  0.000000	 -0.247913	  0.000000	  0.000000	  0.000000
0.004000	  0.000000	  0.000000	  0.000000	  0.208493	  0.000000	 -0.336059	  0.000000	  0.000000	  0.000000	  0.000000	  0.000000	  0.000000	  0.936156	  0.000000	 -0.246159	  0.000000	  0.000000	  0.000000
0.004500	  0.000000	  0.000000	  0.000000	  0.207824	  0.000000	 -0.337837	  0.000000	  0.000000	  0.000000	  0.000000	  0.000000	  0.000000	  0.939042	  0.000000	 -0.244406	  0.000000	  0.000000	  0.000000
0.005000	  0.000000	  0.000000	  0.000000	  0.207155	  0.000000	 -0.339615	  0.000000	  0.000000	  0.000000	  0.000000	  0.000000	  0.000000	  0.941928	  0.000000	 -0.242652	  0.000000	  0.000000	  0.000000
0.005500	  0.000000	  0.000000	  0.000000	  0.206486	  0.000000	 -0.341393	  0.000000	  0.000000	  0.000000	  0.000000	  0.000000	  0.000000	  0.944814	  0.000000	 -0.240898	  0.000000	  0.000000	  0.000000
0.006000	  0.000000	  0.000000	  0.000000	  0.205817	  0.000000	 -0.343171	  0.000000	  0.000000	  0.000000	  0.000000	  0.000000	  0.000000	  0.947700	  0.000000	 -0.239145	  0.000000	  0.000000	  0.000000
0.006500	  0.000000	  0.000000	  0.000000	  0.205148	  0.000000	 -0.344950	  0.000000	  0.000000	  0.000000	  0.000000	  0.000000	  0.000000	  0.950587	  0.000000	 -0.237391	  0.000000	  0.000000	  0.000000
0.007000	  0.000000	  0.000000	  0.000000	  0.204479	  0.000000	 -0.346728	  0.000000	  0.000000	  0.000000	  0.000000	  0.000000	  0.000000	  0.953473	  0.000000	 -0.235637	  0.000000	  0.000000	  0.000000
0.007500	  0.000000	  0.000000	  0.000000	  0.203810	  0.000000	 -0.348506	  0.000000	  0.000000	  0.000000	  0.000000	  0.000000	  0.000000	  0.956359	  0.000000	 -0.233883	  0.000000	  0.000000	  0.000000
0.008000	  0.000000	  0.000000	  0.000000	  0.203141	  0.000000	 -0.350284	  0.000000	  0.000000	  0.000000	  0.000000	  0.000000	  0.000000	  0.959245	  0.000000	 -0.232130	  0.000000	  0.000000	  0.000000
0.008500	  0.000000	  0.000000	  0.000000	  0.202472	  0.000000	 -0.352062	  0.000000	  0.000000	  0.000000	  0.000000	  0.000000	  0.000000	  0.962131	  0.000000	 -0.230376	  0.000000	  0.000000	  0.000000
0.009000	  0.000000	  0.000000	  0.000000	  0.201803	  0.000000	 -0.353841	  0.000000	  0.000000	  0.000000	  0.000000	  0.000000	  0.000000	  0.965018	  0.000000	 -0.228622	  0.000000	  0.000000	  0.000000
0.009500	  0.000000	  0.000000	  0.000000	  0.201134	  0.000000	 -0.355619	  0.000000	  0.000000	  0.000000	  0.000000	  0.000000	  0.000000	  0.967904	  0.000000	 -0.226869	  0.000000	  0.000000	  0.000000
0.010000	  0.000000	  0.000000	  0.000000	  0.200465	  0.000000	 -0.357397	  0.000000	  0.000000	  0.000000	  0.000000	  0.000000	  0.000000	  0.970790	  0.000000	 -0.225115	  0.000000	  0.000000	  0.000000
0.010500	  0.000000	  0.000000	  0.000000	  0.199530	  0.000000	 -0.359372	  0.000000	  0.000000	  0.000000	  0.000000	  0.000000	  0.000000	  0.973657	  0.000000	 -0.223606	  0.000000	  0.000000	  0.000000
0.011000	  0.000000	  0.000000	  0.000000	  0.198594	  0.000000	 -0.361347	  0.000000	  0.000000	  0.000000	  0.000000	  0.000000	  0.000000	  0.976524	  0.000000	 -0.222097	  0.000000	  0.000000	  0.000000
0.011500	  0.000000	  0.000000	  0.000000	  0.197659	  0.000000	 -0.363322	  0.000000	  0.000000	  0.000000	  0.000000	  0.000000	  0.000000	  0.979392	  0.000000	 -0.220588	  0.000000	  0.000000	  0.000000
0.012000	  0.000000	  0.000000	  0.000000	  0.196723	  0.000000	 -0.365297	  0.000000	  0.000000	  0.000000	  0.000000	  0.000000	  0.000000	  0.982259	  0.000000	 -0.219079	  0.000000	  0.000000	  0.000000
0.012500	  0.000000	  0.000000	  0.000000	  0.195788	  0.000000	 -0.367272	  0.000000	  0.000000	  0.000000	  0.000000	  0.000000	  0.000000	  0.985126	  0.000000	 -0.217569	  0.000000	  0.000000	  0.000000
0.013000	  0.000000	  0.000000	  0.000000	  0.194853	  0.000000	 -0.369246	  0.000000	  0.000000	  0.000000	  0.000000	  0.000000	  0.000000	  0.987993	  0.000000	 -0.216060	  0.000000	  0.000000	  0.000000
0.013500	  0.000000	  0.000000	  0.000000	  0.193917	  0.000000	 -0.371221	  0.000000	  0.000000	  0.000000	  0.000000	  0.000000	  0.000000	  0.990860	  0.000000	 -0.214551	  0.000000	  0.000000	  0.000000
0.014000	  0.000000	  0.000000	  0.000000	  0.192982	  0.000000	 -0.373196	  0.000000	  0.000000	  0.000000	  0.000000	  0.000000	  0.000000	  0.993728	  0.000000	 -0.213042	  0.000000	  0.000000	  0.000000
0.014500	  0.000000	  0.000000	  0.000000	  0.192046	  0.000000	 -0.375171	  0.000000	  0.000000	  0.000000	  0.000000	  0.000000	  0.000000	  0.996595	  0.000000	 -0.211533	  0.000000	  0.000000	  0.000000
0.015000	  0.000000	  0.000000	  0.000000	  0.191111	  0.000000	 -0.377146	  0.000000	  0.000000	  0.000000	  0.000000	  0.000000	  0.000000	  0.999462	  0.000000	 -0.210024	  0.000000	  0.000000	  0.000000
0.015500	  0.000000	  0.000000	  0.000000	  0.190375	  0.000000	 -0.379147	  0.000000	  0.000000	  0.000000	  0.000000	  0.000000	  0.000000	  1.002255	  0.000000	 -0.208685	  0.000000	  0.000000	  0.000000
0.016000	  0.000000	  0.000000	  0.000000	  0.189640	  0.000000	 -0.381148	  0.000000	  0.000000	  0.000000	  0.000000	  0.000000	  0.000000	  1.005047	  0.000000	 -0.207346	  0.000000	  0.000000	  0.000000
